<svg width="512" height="512" viewBox="0 0 512 512" fill="none" xmlns="http://www.w3.org/2000/svg">
<path d="M469.178 0H383.844C378.187 0 372.76 2.24761 368.76 6.24839C364.759 10.2492 362.511 15.6754 362.511 21.3333C362.511 26.9913 364.759 32.4175 368.76 36.4183C372.76 40.4191 378.187 42.6667 383.844 42.6667H439.013L387.813 93.8667C364.464 76.2343 336.414 65.9145 307.205 64.2097C277.996 62.5049 248.937 69.4917 223.695 84.288C204.671 73.2949 183.452 66.6425 161.556 64.8067C139.661 62.9709 117.63 65.997 97.0406 73.6687C76.4512 81.3404 57.8118 93.4678 42.456 109.183C27.1003 124.899 15.4077 143.814 8.21505 164.576C1.02236 185.338 -1.49272 207.432 0.849754 229.28C3.19223 251.127 10.3344 272.186 21.7651 290.951C33.1959 309.715 48.6328 325.722 66.9713 337.825C85.3098 349.928 106.097 357.828 127.844 360.96V405.333H85.1778C79.5199 405.333 74.0936 407.581 70.0929 411.582C66.0921 415.582 63.8445 421.009 63.8445 426.667C63.8445 432.325 66.0921 437.751 70.0929 441.752C74.0936 445.752 79.5199 448 85.1778 448H127.844V490.667C127.844 496.325 130.092 501.751 134.093 505.752C138.094 509.752 143.52 512 149.178 512C154.836 512 160.262 509.752 164.263 505.752C168.264 501.751 170.511 496.325 170.511 490.667V448H213.178C218.836 448 224.262 445.752 228.263 441.752C232.264 437.751 234.511 432.325 234.511 426.667C234.511 421.009 232.264 415.582 228.263 411.582C224.262 407.581 218.836 405.333 213.178 405.333H170.511V361.109C189.264 358.315 207.306 351.942 223.652 342.336C253.374 359.72 288.198 366.277 322.207 360.891C356.216 355.505 387.31 338.51 410.207 312.794C433.103 287.077 446.388 254.226 447.805 219.822C449.222 185.419 438.682 151.587 417.978 124.075L469.178 72.8747V128C469.178 133.658 471.425 139.084 475.426 143.085C479.427 147.086 484.853 149.333 490.511 149.333C496.169 149.333 501.595 147.086 505.596 143.085C509.597 139.084 511.844 133.658 511.844 128V42.6667C511.844 31.3508 507.349 20.4983 499.348 12.4968C491.346 4.49523 480.494 0 469.178 0ZM42.5111 213.333C42.41 196.007 46.5556 178.921 54.5853 163.567C62.6149 148.214 74.2841 135.062 88.5722 125.262C102.86 115.461 119.332 109.311 136.547 107.349C153.761 105.387 171.195 107.672 187.322 114.005C162.766 141.261 149.177 176.647 149.177 213.333C149.177 250.02 162.766 285.405 187.322 312.661C171.195 318.995 153.761 321.28 136.547 319.318C119.332 317.356 102.86 311.205 88.5722 301.405C74.2841 291.604 62.6149 278.452 54.5853 263.099C46.5556 247.746 42.41 230.659 42.5111 213.333ZM298.511 320C277.414 320 256.792 313.744 239.25 302.023C221.709 290.303 208.037 273.644 199.964 254.153C191.891 234.662 189.778 213.215 193.894 192.524C198.01 171.832 208.169 152.826 223.086 137.909C238.004 122.991 257.01 112.832 277.702 108.716C298.393 104.6 319.84 106.713 339.331 114.786C358.822 122.86 375.481 136.531 387.201 154.073C398.922 171.614 405.178 192.237 405.178 213.333C405.144 241.613 393.895 268.724 373.898 288.721C353.902 308.717 326.791 319.966 298.511 320Z" fill="#2D3436"/>
</svg>
