<svg width="426" height="512" viewBox="0 0 426 512" fill="none" xmlns="http://www.w3.org/2000/svg">
<path d="M212.928 0C156.479 0.0621033 102.359 22.5125 62.4413 62.4262C22.5236 102.34 0.0677592 156.457 0 212.907C0 267.733 42.4533 353.536 126.187 467.925C136.155 481.581 149.207 492.691 164.28 500.35C179.352 508.009 196.021 512.001 212.928 512.001C229.835 512.001 246.504 508.009 261.577 500.35C276.649 492.691 289.701 481.581 299.669 467.925C383.403 353.536 425.856 267.733 425.856 212.907C425.788 156.457 403.332 102.34 363.415 62.4262C323.497 22.5125 269.377 0.0621033 212.928 0ZM212.928 297.771C196.051 297.771 179.552 292.766 165.519 283.389C151.486 274.013 140.549 260.686 134.09 245.093C127.632 229.5 125.942 212.343 129.234 195.79C132.527 179.237 140.654 164.032 152.588 152.098C164.522 140.163 179.727 132.036 196.28 128.744C212.833 125.451 229.991 127.141 245.584 133.6C261.176 140.058 274.504 150.996 283.88 165.029C293.257 179.062 298.261 195.56 298.261 212.437C298.261 235.069 289.271 256.774 273.268 272.777C257.265 288.78 235.56 297.771 212.928 297.771Z" fill="#2D3436"/>
</svg>
