<svg width="512" height="512" viewBox="0 0 512 512" fill="none" xmlns="http://www.w3.org/2000/svg">
<path d="M191.68 343.125C191.68 329.003 200.96 317.525 212.352 317.525C223.744 317.525 233.024 329.003 233.024 343.125C233.024 354.901 242.581 364.459 254.357 364.459C266.133 364.459 275.691 354.901 275.691 343.125C275.691 329.003 284.971 317.525 296.363 317.525C307.755 317.525 317.035 329.003 317.035 343.125C317.035 352.064 310.891 377.899 254.827 424.363C197.867 377.899 191.701 352.085 191.701 343.125H191.68ZM0 213.333H512V405.333C512 464.149 464.149 512 405.333 512H106.667C47.8507 512 0 464.149 0 405.333V213.333ZM149.013 343.125C149.013 376.789 174.784 414.165 227.84 457.429C235.52 463.68 244.928 466.816 254.336 466.816C263.744 466.816 273.173 463.68 280.853 457.429C333.888 414.187 359.68 376.789 359.68 343.147C359.68 305.515 331.264 274.88 296.341 274.88C280.235 274.88 265.536 281.387 254.336 292.096C243.157 281.408 228.437 274.88 212.331 274.88C177.408 274.88 148.992 305.515 148.992 343.147L149.013 343.125ZM405.333 42.6667H384V21.3333C384 9.55733 374.443 0 362.667 0C350.891 0 341.333 9.55733 341.333 21.3333V42.6667H170.667V21.3333C170.667 9.55733 161.109 0 149.333 0C137.557 0 128 9.55733 128 21.3333V42.6667H106.667C47.8507 42.6667 0 90.5173 0 149.333V170.667H512V149.333C512 90.5173 464.149 42.6667 405.333 42.6667Z" fill="#2F80ED"/>
</svg>
