<svg width="300" height="300" viewBox="0 0 300 300" fill="none" xmlns="http://www.w3.org/2000/svg">
<path d="M112.312 201.05C112.312 192.775 117.75 186.05 124.425 186.05C131.1 186.05 136.538 192.775 136.538 201.05C136.538 207.95 142.138 213.55 149.038 213.55C155.938 213.55 161.538 207.95 161.538 201.05C161.538 192.775 166.975 186.05 173.65 186.05C180.325 186.05 185.763 192.775 185.763 201.05C185.763 206.287 182.162 221.425 149.312 248.65C115.937 221.425 112.325 206.3 112.325 201.05H112.312ZM0 125H300V237.5C300 271.962 271.962 300 237.5 300H62.5C28.0375 300 0 271.962 0 237.5V125ZM87.3125 201.05C87.3125 220.775 102.413 242.675 133.5 268.025C138 271.687 143.512 273.525 149.025 273.525C154.537 273.525 160.062 271.687 164.562 268.025C195.638 242.687 210.75 220.775 210.75 201.062C210.75 179.012 194.1 161.063 173.637 161.063C164.2 161.063 155.587 164.875 149.025 171.15C142.475 164.888 133.85 161.063 124.413 161.063C103.95 161.063 87.3 179.012 87.3 201.062L87.3125 201.05ZM237.5 25H225V12.5C225 5.6 219.4 0 212.5 0C205.6 0 200 5.6 200 12.5V25H100V12.5C100 5.6 94.4 0 87.5 0C80.6 0 75 5.6 75 12.5V25H62.5C28.0375 25 0 53.0375 0 87.5V100H300V87.5C300 53.0375 271.962 25 237.5 25Z" fill="#F5F7FA"/>
</svg>
