<svg width="512" height="512" viewBox="0 0 512 512" fill="none" xmlns="http://www.w3.org/2000/svg">
<path d="M25.0027 407.872C8.99846 423.871 0.00483306 445.573 0 468.203L0 512H43.7973C66.4273 511.995 88.1286 503.001 104.128 486.997L388.779 202.347L309.653 123.221L25.0027 407.872Z" fill="#F2C94C"/>
<path d="M493.76 18.2398C488.565 13.0395 482.396 8.91409 475.606 6.09939C468.816 3.2847 461.537 1.83594 454.187 1.83594C446.836 1.83594 439.558 3.2847 432.767 6.09939C425.977 8.91409 419.808 13.0395 414.613 18.2398L339.819 93.0558L418.944 172.181L493.76 97.3865C498.96 92.1916 503.086 86.0227 505.9 79.2324C508.715 72.4421 510.164 65.1637 510.164 57.8132C510.164 50.4626 508.715 43.1842 505.9 36.3939C503.086 29.6037 498.96 23.4347 493.76 18.2398Z" fill="#F2C94C"/>
</svg>
