<svg width="512" height="512" viewBox="0 0 512 512" fill="none" xmlns="http://www.w3.org/2000/svg">
<path d="M256 341.301C303.111 341.301 341.301 303.111 341.301 256C341.301 208.889 303.111 170.699 256 170.699C208.889 170.699 170.699 208.889 170.699 256C170.699 303.111 208.889 341.301 256 341.301Z" fill="#27AE60"/>
<path d="M496.359 200.959C463.283 147.091 388.047 56.7139 256 56.7139C123.953 56.7139 48.7169 147.091 15.6412 200.959C-5.21308 234.69 -5.21308 277.31 15.6412 311.041C48.7169 364.91 123.953 455.287 256 455.287C388.047 455.287 463.283 364.91 496.359 311.041C517.213 277.31 517.213 234.69 496.359 200.959ZM256 383.952C185.334 383.952 128.047 326.666 128.047 256C128.047 185.334 185.334 128.047 256 128.047C326.666 128.047 383.953 185.334 383.953 256C383.882 326.637 326.637 383.881 256 383.952Z" fill="#27AE60"/>
</svg>
