<svg width="512" height="512" viewBox="0 0 512 512" fill="none" xmlns="http://www.w3.org/2000/svg">
<path d="M0 405.334C0.0338743 433.613 11.2828 460.724 31.2794 480.721C51.2759 500.717 78.3873 511.966 106.667 512H405.333C433.613 511.966 460.724 500.717 480.721 480.721C500.717 460.724 511.966 433.613 512 405.334V213.333H0V405.334ZM362.667 309.333C368.996 309.333 375.183 311.21 380.445 314.726C385.707 318.243 389.809 323.24 392.231 329.088C394.653 334.935 395.287 341.369 394.052 347.576C392.817 353.784 389.769 359.486 385.294 363.961C380.819 368.436 375.117 371.484 368.91 372.719C362.702 373.953 356.268 373.32 350.421 370.898C344.574 368.476 339.576 364.374 336.06 359.112C332.543 353.849 330.667 347.663 330.667 341.333C330.667 332.847 334.038 324.707 340.039 318.706C346.04 312.705 354.18 309.333 362.667 309.333ZM256 309.333C262.329 309.333 268.516 311.21 273.778 314.726C279.041 318.243 283.142 323.24 285.564 329.088C287.986 334.935 288.62 341.369 287.385 347.576C286.15 353.784 283.103 359.486 278.627 363.961C274.152 368.436 268.45 371.484 262.243 372.719C256.036 373.953 249.601 373.32 243.754 370.898C237.907 368.476 232.909 364.374 229.393 359.112C225.877 353.849 224 347.663 224 341.333C224 332.847 227.371 324.707 233.373 318.706C239.374 312.705 247.513 309.333 256 309.333ZM149.333 309.333C155.662 309.333 161.849 311.21 167.112 314.726C172.374 318.243 176.475 323.24 178.897 329.088C181.319 334.935 181.953 341.369 180.718 347.576C179.484 353.784 176.436 359.486 171.961 363.961C167.485 368.436 161.784 371.484 155.576 372.719C149.369 373.953 142.935 373.32 137.087 370.898C131.24 368.476 126.243 364.374 122.726 359.112C119.21 353.849 117.333 347.663 117.333 341.333C117.333 332.847 120.705 324.707 126.706 318.706C132.707 312.705 140.846 309.333 149.333 309.333Z" fill="#2D3436"/>
<path d="M405.333 42.6667H384V21.3333C384 15.6754 381.752 10.2492 377.752 6.24839C373.751 2.24761 368.325 0 362.667 0C357.009 0 351.582 2.24761 347.582 6.24839C343.581 10.2492 341.333 15.6754 341.333 21.3333V42.6667H170.667V21.3333C170.667 15.6754 168.419 10.2492 164.418 6.24839C160.418 2.24761 154.991 0 149.333 0C143.675 0 138.249 2.24761 134.248 6.24839C130.248 10.2492 128 15.6754 128 21.3333V42.6667H106.667C78.3873 42.7005 51.2759 53.9495 31.2794 73.946C11.2828 93.9426 0.0338743 121.054 0 149.333L0 170.667H512V149.333C511.966 121.054 500.717 93.9426 480.721 73.946C460.724 53.9495 433.613 42.7005 405.333 42.6667Z" fill="#2D3436"/>
</svg>
