<svg width="512" height="512" viewBox="0 0 512 512" fill="none" xmlns="http://www.w3.org/2000/svg">
<path d="M160 277.333C141.013 277.333 122.452 271.703 106.665 261.154C90.8781 250.606 78.5736 235.613 71.3076 218.071C64.0416 200.529 62.1404 181.227 65.8446 162.605C69.5488 143.983 78.6919 126.877 92.1177 113.451C105.544 100.025 122.649 90.8822 141.271 87.178C159.894 83.4738 179.196 85.3749 196.738 92.6409C214.279 99.907 229.272 112.212 239.821 127.999C250.37 143.786 256 162.346 256 181.333C255.972 206.785 245.848 231.187 227.851 249.184C209.854 267.182 185.452 277.305 160 277.333ZM320 426.667C319.966 398.387 308.717 371.276 288.721 351.279C268.724 331.283 241.613 320.034 213.333 320H106.667C78.3873 320.034 51.2759 331.283 31.2794 351.279C11.2828 371.276 0.0338743 398.387 0 426.667L0 512H320V426.667ZM373.333 192C354.346 192 335.786 186.37 319.999 175.821C304.211 165.273 291.907 150.279 284.641 132.738C277.375 115.196 275.474 95.8935 279.178 77.2714C282.882 58.6492 292.025 41.5436 305.451 28.1178C318.877 14.692 335.982 5.54884 354.605 1.84466C373.227 -1.85952 392.529 0.0415955 410.071 7.30761C427.613 14.5736 442.606 26.8782 453.154 42.6653C463.703 58.4524 469.333 77.013 469.333 96C469.305 121.452 459.182 145.854 441.184 163.851C423.187 181.848 398.785 191.972 373.333 192ZM405.333 234.667H298.667C294.923 234.838 291.191 235.216 287.488 235.797C279.731 253.745 268.275 269.855 253.867 283.072C285.148 291.923 312.692 310.729 332.325 336.641C351.958 362.552 362.61 394.157 362.667 426.667H512V341.333C511.966 313.054 500.717 285.943 480.721 265.946C460.724 245.95 433.613 234.701 405.333 234.667Z" fill="#2F80ED"/>
</svg>
