<svg width="512" height="512" viewBox="0 0 512 512" fill="none" xmlns="http://www.w3.org/2000/svg">
<path d="M502.624 9.3762C490.123 -3.1254 469.877 -3.1254 457.376 9.3762L397.515 69.2388C358.112 39.3075 309.173 21.3231 256.011 21.3231C126.603 21.3444 21.3227 126.627 21.3227 256.016C21.3227 309.201 39.3067 358.141 69.2373 397.523L9.376 457.386C-3.12533 469.887 -3.12533 490.133 9.376 502.634C15.6267 508.885 23.8187 512 32.0107 512C40.2027 512 48.3947 508.885 54.6453 502.634L114.507 442.772C153.909 472.703 202.848 490.688 256.011 490.688C385.397 490.688 490.677 385.405 490.677 256.016C490.677 202.831 472.693 153.891 442.763 114.509L502.624 54.6465C515.125 42.1662 515.125 21.8565 502.624 9.3762ZM85.3227 256.016C85.3227 161.913 161.888 85.3458 255.989 85.3458C291.509 85.3458 324.491 96.2687 351.84 114.914L114.891 351.869C96.2453 324.519 85.3227 291.537 85.3227 256.016ZM426.656 256.016C426.656 350.119 350.091 426.686 255.989 426.686C220.469 426.686 187.488 415.763 160.139 397.118L397.088 160.163C415.733 187.513 426.656 220.495 426.656 256.016Z" fill="#2F80ED"/>
</svg>
