<svg width="299" height="154" viewBox="0 0 299 154" fill="none" xmlns="http://www.w3.org/2000/svg">
<path d="M292.497 6.31036C290.514 4.31082 288.154 2.72374 285.555 1.64068C282.955 0.557611 280.167 0 277.35 0C274.534 0 271.746 0.557611 269.146 1.64068C266.546 2.72374 264.187 4.31082 262.204 6.31036L164.497 104.017C162.514 106.017 160.154 107.604 157.555 108.687C154.955 109.77 152.166 110.327 149.35 110.327C146.534 110.327 143.746 109.77 141.146 108.687C138.546 107.604 136.187 106.017 134.204 104.017L36.4969 6.31036C34.5137 4.31082 32.1542 2.72374 29.5545 1.64068C26.9549 0.557611 24.1665 0 21.3502 0C18.534 0 15.7456 0.557611 13.1459 1.64068C10.5463 2.72374 8.18678 4.31082 6.20357 6.31036C2.23022 10.3074 0 15.7144 0 21.3504C0 26.9863 2.23022 32.3933 6.20357 36.3904L104.124 134.31C116.124 146.295 132.39 153.027 149.35 153.027C166.31 153.027 182.577 146.295 194.577 134.31L292.497 36.3904C296.47 32.3933 298.701 26.9863 298.701 21.3504C298.701 15.7144 296.47 10.3074 292.497 6.31036Z" fill="#2D3436"/>
</svg>
