<svg width="512" height="512" viewBox="0 0 512 512" fill="none" xmlns="http://www.w3.org/2000/svg">
<path d="M234.667 0H64C47.0261 0 30.7475 6.74284 18.7452 18.7452C6.74284 30.7475 0 47.0261 0 64L0 512H298.667V64C298.667 47.0261 291.924 30.7475 279.922 18.7452C267.919 6.74284 251.641 0 234.667 0ZM128 405.333H64V362.667H128V405.333ZM128 320H64V277.333H128V320ZM128 234.667H64V192H128V234.667ZM128 149.333H64V106.667H128V149.333ZM234.667 405.333H170.667V362.667H234.667V405.333ZM234.667 320H170.667V277.333H234.667V320ZM234.667 234.667H170.667V192H234.667V234.667ZM234.667 149.333H170.667V106.667H234.667V149.333ZM448 106.667H341.333V512H512V170.667C512 153.693 505.257 137.414 493.255 125.412C481.253 113.41 464.974 106.667 448 106.667ZM448 405.333H405.333V362.667H448V405.333ZM448 320H405.333V277.333H448V320ZM448 234.667H405.333V192H448V234.667Z" fill="#2D3436"/>
</svg>
