<svg width="512" height="512" viewBox="0 0 512 512" fill="none" xmlns="http://www.w3.org/2000/svg">
<path d="M512 405.333C512 440.619 483.285 469.333 448 469.333V490.667C448 502.443 438.464 512 426.667 512C414.869 512 405.333 502.443 405.333 490.667V469.333H399.616C376.853 469.333 355.605 457.088 344.192 437.355C338.283 427.157 341.781 414.123 351.957 408.213C362.197 402.304 375.232 405.803 381.099 416C384.917 422.571 392 426.667 399.595 426.667H447.979C459.755 426.667 469.312 417.088 469.312 405.333C469.312 397.269 463.531 390.443 455.573 389.12L390.699 378.304C362.069 373.547 341.312 349.013 341.312 320C341.312 284.715 370.027 256 405.312 256V234.667C405.312 222.891 414.848 213.333 426.645 213.333C438.443 213.333 447.979 222.891 447.979 234.667V256H453.696C476.459 256 497.707 268.267 509.12 288C515.029 298.197 511.531 311.232 501.355 317.141C491.093 323.029 478.08 319.531 472.213 309.355C468.395 302.763 461.312 298.688 453.717 298.688H405.333C393.557 298.688 384 308.267 384 320.021C384 328.085 389.781 334.912 397.739 336.235L462.613 347.051C491.243 351.808 512 376.32 512 405.333ZM277.333 170.667H416.853C409.451 151.189 398.08 133.269 382.912 118.101L308.587 43.7333C293.397 28.5653 275.477 17.1947 256 9.81333V149.333C256 161.088 265.557 170.667 277.333 170.667ZM359.872 504.256C347.541 509.248 334.101 512 320 512H106.667C47.8507 512 0 464.149 0 405.333V106.667C0 47.8507 47.8507 0 106.667 0H202.987C206.464 0 209.899 0.277333 213.333 0.512V149.333C213.333 184.619 242.048 213.333 277.333 213.333H366.336C365.376 216.043 364.587 218.816 363.989 221.675C337.749 232.747 316.821 254.059 306.219 280.555C300.523 278.485 294.379 277.333 287.979 277.333H138.667C109.269 277.333 85.3333 301.269 85.3333 330.667V373.333C85.3333 402.731 109.269 426.667 138.667 426.667H288C291.648 426.667 295.211 426.304 298.645 425.6C298.432 437.12 301.355 448.512 307.264 458.709C319.339 479.616 338.069 495.488 359.872 504.277V504.256ZM85.3333 128C85.3333 139.776 94.8907 149.333 106.667 149.333H149.333C161.109 149.333 170.667 139.776 170.667 128C170.667 116.224 161.109 106.667 149.333 106.667H106.667C94.8907 106.667 85.3333 116.224 85.3333 128ZM85.3333 213.333C85.3333 225.109 94.8907 234.667 106.667 234.667H149.333C161.109 234.667 170.667 225.109 170.667 213.333C170.667 201.557 161.109 192 149.333 192H106.667C94.8907 192 85.3333 201.557 85.3333 213.333ZM138.667 320C132.779 320 128 324.779 128 330.667V373.333C128 379.221 132.779 384 138.667 384H288C293.888 384 298.667 379.221 298.667 373.333V330.667C298.667 324.779 293.888 320 288 320H138.667Z" fill="#2F80ED"/>
</svg>
