<svg width="512" height="512" viewBox="0 0 512 512" fill="none" xmlns="http://www.w3.org/2000/svg">
<path d="M42.667 373.333H96C119.564 373.333 138.667 392.436 138.667 416V469.333C138.667 492.898 119.564 512 96 512H42.667C19.103 512 0 492.898 0 469.333V416C0 392.436 19.103 373.333 42.667 373.333Z" fill="#2D3436"/>
<path d="M416 373.333H469.333C492.898 373.333 512 392.436 512 416V469.333C512 492.898 492.898 512 469.333 512H416C392.436 512 373.333 492.898 373.333 469.333V416C373.333 392.436 392.436 373.333 416 373.333Z" fill="#2D3436"/>
<path d="M42.667 186.667H96C119.564 186.667 138.667 205.77 138.667 229.334V282.667C138.667 306.231 119.564 325.334 96 325.334H42.667C19.103 325.333 0 306.231 0 282.667V229.334C0 205.769 19.103 186.667 42.667 186.667Z" fill="#2D3436"/>
<path d="M416 186.667H469.333C492.897 186.667 512 205.77 512 229.334V282.667C512 306.231 492.898 325.334 469.333 325.334H416C392.436 325.334 373.333 306.231 373.333 282.667V229.334C373.333 205.769 392.436 186.667 416 186.667Z" fill="#2D3436"/>
<path d="M42.667 0H96C119.564 0 138.667 19.103 138.667 42.667V96C138.667 119.564 119.564 138.667 96 138.667H42.667C19.103 138.667 0 119.564 0 96V42.667C0 19.103 19.103 0 42.667 0Z" fill="#2D3436"/>
<path d="M229.333 373.333H282.666C306.23 373.333 325.333 392.436 325.333 416V469.333C325.333 492.897 306.23 512 282.666 512H229.333C205.769 512 186.666 492.898 186.666 469.333V416C186.667 392.436 205.769 373.333 229.333 373.333Z" fill="#2D3436"/>
<path d="M229.333 186.667H282.666C306.23 186.667 325.333 205.77 325.333 229.334V282.667C325.333 306.231 306.23 325.334 282.666 325.334H229.333C205.769 325.334 186.666 306.231 186.666 282.667V229.334C186.667 205.769 205.769 186.667 229.333 186.667Z" fill="#2D3436"/>
<path d="M229.333 0H282.666C306.23 0 325.333 19.103 325.333 42.667V96C325.333 119.564 306.23 138.667 282.666 138.667H229.333C205.769 138.667 186.666 119.564 186.666 96V42.667C186.667 19.103 205.769 0 229.333 0Z" fill="#2D3436"/>
<path d="M416 0H469.333C492.898 0 512 19.103 512 42.667V96C512 119.564 492.898 138.667 469.333 138.667H416C392.436 138.667 373.333 119.564 373.333 96V42.667C373.333 19.103 392.436 0 416 0Z" fill="#2D3436"/>
</svg>
