<svg width="516" height="400" viewBox="0 0 516 400" fill="none" xmlns="http://www.w3.org/2000/svg">
<path d="M408.5 0H107.5C48.1385 0 0 44.78 0 100V300C0 355.22 48.1385 400 107.5 400H408.5C467.861 400 516 355.22 516 300V100C516 44.78 467.861 0 408.5 0ZM139.75 100C169.442 100 193.5 122.38 193.5 150C193.5 177.62 169.442 200 139.75 200C110.058 200 86 177.62 86 150C86 122.38 110.058 100 139.75 100ZM197.865 299.58C196.403 299.86 194.94 300 193.478 300C183.502 300 174.558 293.5 172.451 284.06C169.334 270.12 155.595 260 139.75 260C123.905 260 110.166 270.12 107.049 284.06C104.641 294.86 93.2455 301.74 81.6355 299.58C70.004 297.34 62.522 286.74 64.9515 275.92C72.154 243.52 103.63 219.98 139.75 219.98C175.87 219.98 207.346 243.52 214.549 275.92C216.957 286.74 209.496 297.32 197.865 299.58ZM387 300H301C289.132 300 279.5 291.04 279.5 280C279.5 268.96 289.132 260 301 260H387C398.868 260 408.5 268.96 408.5 280C408.5 291.04 398.868 300 387 300ZM430 220H301C289.132 220 279.5 211.04 279.5 200C279.5 188.96 289.132 180 301 180H430C441.868 180 451.5 188.96 451.5 200C451.5 211.04 441.868 220 430 220ZM430 140H301C289.132 140 279.5 131.04 279.5 120C279.5 108.96 289.132 100 301 100H430C441.868 100 451.5 108.96 451.5 120C451.5 131.04 441.868 140 430 140Z" fill="#2D3436"/>
</svg>
