<svg width="427" height="512" viewBox="0 0 427 512" fill="none" xmlns="http://www.w3.org/2000/svg">
<path d="M405.333 85.333H339.2C328.993 35.703 285.335 0.064 234.666 0H191.999C141.33 0.064 97.672 35.703 87.466 85.333H21.333C9.551 85.333 0 94.884 0 106.666C0 118.448 9.551 128 21.333 128H42.666V405.333C42.737 464.214 90.452 511.93 149.333 512H277.333C336.214 511.93 383.929 464.214 384 405.333V128H405.333C417.115 128 426.666 118.449 426.666 106.667C426.666 94.885 417.115 85.333 405.333 85.333ZM192 362.667C192 374.449 182.449 384 170.667 384C158.884 384 149.333 374.449 149.333 362.667V234.667C149.333 222.885 158.884 213.334 170.666 213.334C182.448 213.334 191.999 222.885 191.999 234.667V362.667H192ZM277.333 362.667C277.333 374.449 267.782 384 256 384C244.218 384 234.667 374.449 234.667 362.667V234.667C234.667 222.885 244.218 213.334 256 213.334C267.782 213.334 277.333 222.885 277.333 234.667V362.667ZM131.648 85.333C140.722 59.782 164.886 42.699 192 42.666H234.667C261.781 42.699 285.945 59.782 295.019 85.333H131.648Z" fill="#F5F7FA"/>
</svg>
