<svg width="512" height="512" viewBox="0 0 512 512" fill="none" xmlns="http://www.w3.org/2000/svg">
<path d="M256 0C76.5673 0 0 76.5673 0 256C0 435.433 76.5673 512 256 512C435.433 512 512 435.433 512 256C512 76.5673 435.433 0 256 0ZM379.462 198.726C348.928 246.505 305.455 306.385 239.802 345.786C232.262 350.324 222.79 350.208 215.366 345.484C179.991 323.072 153.437 299.055 131.724 269.894C124.044 259.584 126.185 245.015 136.495 237.335C146.781 229.655 161.373 231.82 169.03 242.106C184.716 263.168 203.66 281.181 228.049 298.077C278.319 264.099 312.855 216.46 340.201 173.661C347.159 162.816 361.542 159.651 372.34 166.586C383.185 173.521 386.374 187.904 379.462 198.726Z" fill="#27AE60"/>
</svg>
