<svg width="512" height="512" viewBox="0 0 512 512" fill="none" xmlns="http://www.w3.org/2000/svg">
<path d="M362.667 0H149.333C114.048 0 85.3333 28.7147 85.3333 64V512H426.667V64C426.667 28.7147 397.952 0 362.667 0ZM234.667 405.333H170.667V362.667H234.667V405.333ZM234.667 320H170.667V277.333H234.667V320ZM192 170.667V128H234.667V85.3333H277.333V128H320V170.667H277.333V213.333H234.667V170.667H192ZM341.333 405.333H277.333V362.667H341.333V405.333ZM341.333 320H277.333V277.333H341.333V320ZM512 192V512H469.333V131.925C494.101 140.757 512 164.224 512 192ZM42.6667 131.925V512H0V192C0 164.224 17.8987 140.757 42.6667 131.925Z" fill="#2D3436"/>
</svg>
