<svg width="512" height="513" viewBox="0 0 512 513" fill="none" xmlns="http://www.w3.org/2000/svg">
<path d="M472.494 472.87L491.907 450.491C504.263 438.095 511.202 421.306 511.202 403.803C511.202 386.3 504.263 369.511 491.907 357.115C491.246 356.454 439.918 316.966 439.918 316.966C427.599 305.239 411.236 298.71 394.228 298.734C377.22 298.757 360.876 305.333 348.59 317.094L307.928 351.355C274.737 337.618 244.587 317.46 219.209 292.038C193.831 266.616 173.725 236.431 160.046 203.216L194.179 162.683C205.949 150.399 212.532 134.051 212.56 117.038C212.588 100.025 206.058 83.6563 194.328 71.3335C194.328 71.3335 154.798 20.0695 154.136 19.4082C141.965 7.1575 125.462 0.187343 108.193 0.00372157C90.9251 -0.179899 74.2778 6.43776 61.8483 18.4269L37.315 39.7602C-107.624 207.91 204.483 517.606 378.179 512.038C395.719 512.139 413.101 508.726 429.3 501.998C445.499 495.271 460.186 485.367 472.494 472.87Z" fill="#2D3436"/>
</svg>
