<svg width="300" height="300" viewBox="0 0 300 300" fill="none" xmlns="http://www.w3.org/2000/svg">
<path d="M289.082 176.29L262.172 203.203V224.688C262.172 245.326 245.396 262.12 224.78 262.12H203.33L176.433 289.033C169.391 296.095 159.993 300 149.997 300C140.001 300 130.616 296.107 123.561 289.033L96.6763 262.12H75.2134C54.5981 262.12 37.8217 245.326 37.8217 224.688V203.203L10.9371 176.29C-3.64569 161.704 -3.64569 137.948 10.9371 123.35L37.8217 96.4368V74.9637C37.8217 54.3267 54.5981 37.5326 75.2134 37.5326H96.6763L123.561 10.6071C137.695 -3.5544 162.336 -3.51697 176.445 10.6071L203.33 37.5201H224.78C231.673 37.5201 237.244 43.1098 237.244 49.9971C237.244 56.8845 231.673 62.4742 224.78 62.4742H198.17C194.854 62.4742 191.689 61.1641 189.358 58.8184L158.809 28.2372C154.11 23.5458 145.921 23.5208 141.185 28.2372L110.648 58.8184C108.305 61.1641 105.152 62.4742 101.836 62.4742H75.2134C68.3334 62.4742 62.7495 68.0764 62.7495 74.9513V101.59C62.7495 104.896 61.4408 108.078 59.0976 110.411L28.561 140.98C23.7001 145.846 23.7001 153.756 28.561 158.635L59.0976 189.204C61.4408 191.549 62.7495 194.706 62.7495 198.025V224.676C62.7495 231.563 68.3334 237.153 75.2134 237.153H101.836C105.152 237.153 108.318 238.463 110.648 240.809L141.185 271.378C145.909 276.094 154.11 276.094 158.796 271.378L189.358 240.809C191.701 238.463 194.854 237.153 198.17 237.153H224.78C231.66 237.153 237.244 231.563 237.244 224.676V198.025C237.244 194.706 238.553 191.537 240.896 189.204L271.445 158.635C276.306 153.769 276.306 145.846 271.445 140.98C266.584 136.101 266.584 128.203 271.445 123.337C276.319 118.471 284.208 118.459 289.082 123.337C303.639 137.923 303.639 161.667 289.082 176.265V176.29ZM133.607 171.012L95.9908 133.731C91.08 128.865 83.2153 128.927 78.3543 133.818C73.5059 138.709 73.5557 146.607 78.4416 151.461L116.07 188.755C123.723 196.341 133.794 200.146 143.852 200.146C153.911 200.146 164.006 196.316 171.672 188.692L282.974 78.0081C287.86 73.1546 287.885 65.2566 283.024 60.3656C278.163 55.4746 270.286 55.4371 265.4 60.3032L154.098 171C148.451 176.627 139.265 176.627 133.607 171.012Z" fill="#F5F7FA"/>
</svg>
