<svg width="299" height="512" viewBox="0 0 299 512" fill="none" xmlns="http://www.w3.org/2000/svg">
<path d="M298.667 170.667V150.784C298.638 122.118 287.238 94.6345 266.969 74.3647C246.699 54.0949 219.215 42.6949 190.549 42.6667H170.667V0H128V42.6667H108.117C82.4601 42.6941 57.6488 51.845 38.1183 68.4838C18.5877 85.1226 5.61087 108.165 1.50726 133.492C-2.59634 158.819 2.44076 184.78 15.7182 206.734C28.9957 228.689 49.6481 245.206 73.984 253.333L128 271.36V426.667H108.117C90.7639 426.65 74.1261 419.749 61.8554 407.478C49.5847 395.207 42.6836 378.569 42.6667 361.216V341.333H0V361.216C0.0282394 389.882 11.4282 417.365 31.698 437.635C51.9678 457.905 79.4515 469.305 108.117 469.333H128V512H170.667V469.333H190.549C216.207 469.306 241.018 460.155 260.548 443.516C280.079 426.877 293.056 403.835 297.159 378.508C301.263 353.181 296.226 327.221 282.948 305.266C269.671 283.311 249.019 266.794 224.683 258.667L170.667 240.64V85.3333H190.549C207.903 85.3503 224.541 92.2514 236.811 104.522C249.082 116.793 255.983 133.431 256 150.784V170.667H298.667ZM211.2 299.115C225.947 304.023 238.466 314.019 246.517 327.313C254.567 340.608 257.624 356.334 255.14 371.676C252.656 387.019 244.794 400.977 232.959 411.052C221.125 421.127 206.092 426.662 190.549 426.667H170.667V285.589L211.2 299.115ZM128 226.411L87.4667 212.885C72.7198 207.977 60.2008 197.981 52.1501 184.687C44.0994 171.392 41.0425 155.666 43.5264 140.324C46.0104 124.981 53.8731 111.023 65.7073 100.948C77.5416 90.8728 92.5751 85.3377 108.117 85.3333H128V226.411Z" fill="#27AE60"/>
</svg>
