<svg width="512" height="512" viewBox="0 0 512 512" fill="none" xmlns="http://www.w3.org/2000/svg">
<path d="M256 0C114.837 0 0 114.837 0 256C0 397.163 114.837 512 256 512C397.163 512 512 397.163 512 256C512 114.837 397.163 0 256 0ZM170.667 451.499V405.333C170.667 393.557 180.245 384 192 384H320C331.755 384 341.333 393.557 341.333 405.333V451.499C315.179 462.955 286.336 469.333 256 469.333C225.664 469.333 196.821 462.955 170.667 451.499ZM384 426.56V405.333C384 370.048 355.285 341.333 320 341.333H192C156.715 341.333 128 370.048 128 405.333V426.56C76.224 387.605 42.6667 325.653 42.6667 256C42.6667 138.368 138.368 42.6667 256 42.6667C373.632 42.6667 469.333 138.368 469.333 256C469.333 325.632 435.776 387.605 384 426.56ZM256 128C208.939 128 170.667 166.272 170.667 213.333C170.667 260.395 208.939 298.667 256 298.667C303.061 298.667 341.333 260.395 341.333 213.333C341.333 166.272 303.061 128 256 128ZM256 256C232.469 256 213.333 236.864 213.333 213.333C213.333 189.803 232.469 170.667 256 170.667C279.531 170.667 298.667 189.803 298.667 213.333C298.667 236.864 279.531 256 256 256Z" fill="#2D3436"/>
</svg>
