<svg width="278" height="512" viewBox="0 0 278 512" fill="none" xmlns="http://www.w3.org/2000/svg">
<path d="M266.667 128C266.667 57.3013 209.365 0 138.667 0C67.968 0 10.6667 57.3013 10.6667 128C10.6667 135.339 11.4133 142.464 12.608 149.461C4.672 159.211 0 169.984 0 181.333V437.333C0 486.357 69.76 512 138.667 512C207.573 512 277.333 486.357 277.333 437.333V181.333C277.333 169.984 272.661 159.189 264.725 149.461C265.899 142.464 266.667 135.339 266.667 128ZM234.667 352C234.667 361.301 201.024 384 138.667 384C76.3093 384 42.6667 361.301 42.6667 352V321.941C68.8213 334.763 103.829 341.333 138.667 341.333C173.504 341.333 208.512 334.763 234.667 321.941V352ZM68.8213 86.7413C72.064 63.7013 92.4587 46.9333 115.733 46.9333H121.707V38.4C121.707 28.9707 129.344 21.3333 138.773 21.3333C148.203 21.3333 155.84 28.9707 155.84 38.4V46.9333H161.685C176.853 46.9333 190.443 53.8453 199.445 64.704C208.363 75.456 200.789 91.712 186.816 91.712H185.195C180.352 91.712 175.936 89.4293 172.651 85.8667C169.92 82.9013 164.416 81.0453 160.085 81.0453H115.243C109.312 81.0453 103.893 85.0133 102.72 90.816C101.355 97.6 105.835 103.979 112.299 105.28L171.861 117.205C195.584 121.941 212.16 144.555 208.661 169.237C205.397 192.277 185.024 209.024 161.749 209.024H155.776V217.557C155.776 226.987 148.139 234.624 138.709 234.624C129.28 234.624 121.643 226.987 121.643 217.557V209.024H114.475C100.181 209.024 87.3173 202.901 78.336 193.131C68.1813 182.08 75.9253 164.245 90.944 164.245C95.7867 164.245 100.203 166.528 103.488 170.091C106.219 173.056 110.144 174.912 114.475 174.912H162.24C168.171 174.912 173.589 170.923 174.741 165.099C176.085 158.315 171.627 151.979 165.12 150.656L105.579 138.731C81.856 133.973 65.3013 111.403 68.7787 86.6987L68.8213 86.7413ZM138.667 256C173.504 256 208.512 249.429 234.667 236.608V266.667C234.667 275.968 201.024 298.667 138.667 298.667C76.3093 298.667 42.6667 275.968 42.6667 266.667V236.608C68.8213 249.429 103.829 256 138.667 256ZM138.667 469.333C76.3093 469.333 42.6667 446.635 42.6667 437.333V407.275C68.8213 420.096 103.829 426.667 138.667 426.667C173.504 426.667 208.512 420.096 234.667 407.275V437.333C234.667 446.635 201.024 469.333 138.667 469.333Z" fill="#636E72"/>
</svg>
