<svg width="491" height="512" viewBox="0 0 491 512" fill="none" xmlns="http://www.w3.org/2000/svg">
<path d="M320 490.667C320 502.443 310.464 512 298.667 512H106.667C47.8507 512 0 464.149 0 405.333V106.667C0 47.8507 47.8507 0 106.667 0H202.987C242.859 0 280.363 15.5307 308.587 43.7333L382.912 118.101C388.693 123.883 394.069 130.219 398.869 136.939C405.717 146.517 403.499 159.851 393.92 166.699C384.341 173.525 370.987 171.328 364.16 161.728C360.725 156.928 356.885 152.384 352.768 148.288L278.421 73.92C271.637 67.136 264.107 61.3973 256 56.7467V149.333C256 161.088 265.557 170.667 277.333 170.667H341.333C353.131 170.667 362.667 180.224 362.667 192C362.667 203.776 353.131 213.333 341.333 213.333H277.333C242.048 213.333 213.333 184.619 213.333 149.333V43.1573C209.92 42.8373 206.464 42.6667 202.987 42.6667H106.667C71.3813 42.6667 42.6667 71.3813 42.6667 106.667V405.333C42.6667 440.619 71.3813 469.333 106.667 469.333H298.667C310.464 469.333 320 478.891 320 490.667ZM441.28 347.029L376.405 336.213C368.448 334.891 362.667 328.064 362.667 320C362.667 308.245 372.224 298.667 384 298.667H432.384C439.979 298.667 447.061 302.763 450.88 309.333C456.747 319.531 469.76 323.008 480.021 317.12C490.219 311.211 493.717 298.176 487.787 287.979C476.395 268.245 455.147 255.979 432.363 255.979H426.645V234.645C426.645 222.869 417.109 213.312 405.312 213.312C393.515 213.312 383.979 222.869 383.979 234.645V255.979C348.693 255.979 319.979 284.693 319.979 319.979C319.979 348.992 340.757 373.525 369.365 378.283L434.24 389.099C442.197 390.421 447.979 397.248 447.979 405.312C447.979 417.067 438.421 426.645 426.645 426.645H378.261C370.667 426.645 363.584 422.549 359.765 415.979C353.899 405.76 340.864 402.283 330.624 408.192C320.427 414.101 316.928 427.136 322.859 437.333C334.251 457.067 355.499 469.312 378.283 469.312H384V490.645C384 502.421 393.536 511.979 405.333 511.979C417.131 511.979 426.667 502.421 426.667 490.645V469.312C461.952 469.312 490.667 440.597 490.667 405.312C490.667 376.299 469.888 351.787 441.28 347.029ZM138.667 320H256C267.797 320 277.333 310.443 277.333 298.667C277.333 286.891 267.797 277.333 256 277.333H138.667C109.269 277.333 85.3333 301.269 85.3333 330.667V373.333C85.3333 402.731 109.269 426.667 138.667 426.667H256C267.797 426.667 277.333 417.109 277.333 405.333C277.333 393.557 267.797 384 256 384H138.667C132.779 384 128 379.221 128 373.333V330.667C128 324.779 132.779 320 138.667 320ZM106.667 234.667H149.333C161.109 234.667 170.667 225.109 170.667 213.333C170.667 201.557 161.109 192 149.333 192H106.667C94.8907 192 85.3333 201.557 85.3333 213.333C85.3333 225.109 94.8907 234.667 106.667 234.667ZM106.667 149.333H149.333C161.109 149.333 170.667 139.776 170.667 128C170.667 116.224 161.109 106.667 149.333 106.667H106.667C94.8907 106.667 85.3333 116.224 85.3333 128C85.3333 139.776 94.8907 149.333 106.667 149.333Z" fill="#636E72"/>
</svg>
