<svg width="300" height="300" viewBox="0 0 300 300" fill="none" xmlns="http://www.w3.org/2000/svg">
<path d="M237.51 125C202.996 125 175.007 152.988 175.007 187.5C175.007 194.65 176.457 201.4 178.67 207.8L174.732 211.6V237.5H149.731V262.5H125.005V300H157.557L212.709 244.837C220.322 248.137 228.685 250 237.497 250C272.011 250 300 222.012 300 187.5C300 152.988 272.024 125 237.51 125ZM250.01 156.25C260.361 156.25 268.761 164.65 268.761 175C268.761 185.35 260.361 193.75 250.01 193.75C239.66 193.75 231.26 185.35 231.26 175C231.26 164.65 239.66 156.25 250.01 156.25ZM37.5016 75C37.5016 33.6375 71.1405 0 112.505 0C153.869 0 187.508 33.6375 187.508 75C187.508 116.363 153.869 150 112.505 150C71.1405 150 37.5016 116.363 37.5016 75ZM100.004 300H0V237.5C0 203.038 28.0387 175 62.5026 175H151.006C150.419 179.1 150.006 183.25 150.006 187.5C150.006 191.6 149.744 212.5 149.744 212.5H124.743V237.5H100.004V300Z" fill="#2D3436"/>
</svg>
