<svg width="512" height="512" viewBox="0 0 512 512" fill="none" xmlns="http://www.w3.org/2000/svg">
<path d="M512 149.333V170.667H0V149.333C0 90.432 47.7653 42.6667 106.667 42.6667H128V21.3333C128 9.55733 137.557 0 149.333 0C161.109 0 170.667 9.55733 170.667 21.3333V42.6667H341.333V21.3333C341.333 9.55733 350.891 0 362.667 0C374.443 0 384 9.55733 384 21.3333V42.6667H405.333C464.235 42.6667 512 90.432 512 149.333ZM512 362.667C512 445.013 444.992 512 362.667 512C280.341 512 213.333 445.013 213.333 362.667C213.333 280.32 280.341 213.333 362.667 213.333C444.992 213.333 512 280.32 512 362.667ZM405.333 375.168L384 353.835V320C384 308.224 374.443 298.667 362.667 298.667C350.891 298.667 341.333 308.224 341.333 320V362.667C341.333 368.32 343.573 373.76 347.584 377.749L375.168 405.333C383.488 413.653 397.013 413.653 405.333 405.333C413.653 397.013 413.653 383.488 405.333 375.168ZM170.667 362.667C170.667 302.315 198.571 248.533 242.112 213.333H0V405.333C0 464.235 47.7653 512 106.667 512H242.112C198.571 476.8 170.667 423.019 170.667 362.667Z" fill="#2D3436"/>
</svg>
