<svg width="427" height="512" viewBox="0 0 427 512" fill="none" xmlns="http://www.w3.org/2000/svg">
<path d="M213.781 256C143.189 256 85.7813 198.592 85.7813 128C85.7813 57.408 143.211 0 213.781 0C284.352 0 341.781 57.408 341.781 128C341.781 198.592 284.373 256 213.781 256ZM256 387.925V298.667H148.885V389.909C161.579 397.291 170.219 410.901 170.219 426.667C170.219 450.24 151.125 469.333 127.552 469.333C103.979 469.333 84.8853 450.24 84.8853 426.667C84.8853 410.923 93.5253 397.312 106.219 389.909V298.709C47.616 298.965 0 346.667 0 405.333V512H213.333V448C213.333 420.224 231.232 396.757 256 387.925ZM320 298.667H298.667V387.925C323.435 396.757 341.333 420.224 341.333 448V512H426.667V405.333C426.667 346.517 378.816 298.667 320 298.667ZM277.333 426.667C265.557 426.667 256 436.224 256 448V512H298.667V448C298.667 436.224 289.109 426.667 277.333 426.667Z" fill="#2D3436"/>
</svg>
