<svg width="512" height="512" viewBox="0 0 512 512" fill="none" xmlns="http://www.w3.org/2000/svg">
<path d="M256 512C397.385 512 512 397.385 512 256C512 114.615 397.385 0 256 0C114.615 0 0 114.615 0 256C0.153 397.322 114.678 511.847 256 512ZM234.667 128C234.667 116.218 244.218 106.667 256 106.667C267.782 106.667 277.333 116.218 277.333 128V298.667C277.333 310.449 267.782 320 256 320C244.218 320 234.667 310.449 234.667 298.667V128ZM256 384C267.782 384 277.333 393.551 277.333 405.333C277.333 417.115 267.782 426.666 256 426.666C244.218 426.666 234.667 417.115 234.667 405.333C234.667 393.551 244.218 384 256 384Z" fill="#F5F7FA"/>
</svg>
